<svg width="34" height="35" viewBox="0 0 34 35" fill="none" xmlns="http://www.w3.org/2000/svg">
<path d="M17 34.4631C26.2982 34.4631 34 26.8913 34 17.7143C34 8.55359 26.2982 0.965576 16.9835 0.965576C7.68538 0.965576 0 8.55359 0 17.7143C0 26.8913 7.70184 34.4631 17 34.4631ZM25.8374 17.6981C25.8374 18.1845 25.6563 18.5412 25.2614 18.8979L19.4685 24.5241C19.1888 24.816 18.8596 24.9457 18.4318 24.9457C17.6418 24.9457 17.0494 24.3458 17.0494 23.5513C17.0494 23.1459 17.2304 22.773 17.5102 22.5298L19.5673 20.5842L21.4927 19.0439L17.971 19.206H9.6273C8.75508 19.206 8.14618 18.5737 8.14618 17.6981C8.14618 16.8226 8.75508 16.1903 9.6273 16.1903H17.971L21.4927 16.3524L19.5508 14.8283L17.5102 12.8827C17.2469 12.6232 17.0494 12.2503 17.0494 11.8612C17.0494 11.0505 17.6418 10.4668 18.4318 10.4668C18.8596 10.4668 19.1888 10.5965 19.4685 10.8722L25.2614 16.5145C25.6728 16.8874 25.8374 17.2441 25.8374 17.6981Z" fill="#57B85F"/>
</svg>
